#N canvas 374 174 545 541 10;
#X obj 83 472 unpack f f f f f f f f;
#X obj 83 518 tgl 15 0 empty empty empty 17 7 0 10 -262144 -1 -1 0
1;
#X obj 101 518 tgl 15 0 empty empty empty 17 7 0 10 -262144 -1 -1 0
1;
#X obj 119 518 tgl 15 0 empty empty empty 17 7 0 10 -262144 -1 -1 0
1;
#X obj 138 518 tgl 15 0 empty empty empty 17 7 0 10 -262144 -1 -1 0
1;
#X obj 156 518 tgl 15 0 empty empty empty 17 7 0 10 -262144 -1 -1 0
1;
#X obj 175 518 tgl 15 0 empty empty empty 17 7 0 10 -262144 -1 -1 0
1;
#X obj 193 518 tgl 15 0 empty empty empty 17 7 0 10 -262144 -1 -1 0
1;
#X obj 212 518 tgl 15 0 empty empty empty 17 7 0 10 -262144 -1 -1 0
1;
#X msg 79 45 close;
#X obj 83 404 list split 8;
#X obj 117 426 unpack f f f f f f f f;
#X obj 117 452 tgl 15 0 empty empty empty 17 7 0 10 -262144 -1 -1 0
1;
#X obj 135 452 tgl 15 0 empty empty empty 17 7 0 10 -262144 -1 -1 0
1;
#X obj 153 452 tgl 15 0 empty empty empty 17 7 0 10 -262144 -1 -1 0
1;
#X obj 172 452 tgl 15 0 empty empty empty 17 7 0 10 -262144 -1 -1 0
1;
#X obj 190 452 tgl 15 0 empty empty empty 17 7 0 10 -262144 -1 -1 0
1;
#X obj 209 452 tgl 15 0 empty empty empty 17 7 0 10 -262144 -1 -1 0
1;
#X obj 227 452 tgl 15 0 empty empty empty 17 7 0 10 -262144 -1 -1 0
1;
#X obj 246 452 tgl 15 0 empty empty empty 17 7 0 10 -262144 -1 -1 0
1;
#X obj 64 141 select 192;
#X obj 121 225 spigot;
#X msg 133 377 0;
#X msg 64 190 1;
#X obj 83 377 spigot;
#X msg 103 190 0;
#X msg 148 189 1;
#X obj 64 165 t b b b;
#X obj 121 165 t f b;
#X obj 83 494 t f b;
#X msg 64 3 devices;
#X obj 64 118 comport 6 115200;
#X msg 101 88 open \$1;
#X floatatom 101 67 5 0 0 0 - - -;
#X obj 116 275 loadbang;
#X msg 116 297 2;
#X obj 116 319 * 8;
#X floatatom 151 297 5 0 0 0 - - -;
#X obj 83 345 repack;
#X text 184 297 set number of shift in chips here \, in other than
two;
#X obj 79 25 loadbang;
#X text 114 2 1.click and check console for port number;
#X text 268 451 check input from Arduino;
#X text 141 319 * 8 if using 8bit shift registers;
#X text 136 66 2.open the port Arduino is at;
#X connect 0 0 29 0;
#X connect 0 1 2 0;
#X connect 0 2 3 0;
#X connect 0 3 4 0;
#X connect 0 4 5 0;
#X connect 0 5 6 0;
#X connect 0 6 7 0;
#X connect 0 7 8 0;
#X connect 9 0 31 0;
#X connect 10 0 0 0;
#X connect 10 1 11 0;
#X connect 11 0 12 0;
#X connect 11 1 13 0;
#X connect 11 2 14 0;
#X connect 11 3 15 0;
#X connect 11 4 16 0;
#X connect 11 5 17 0;
#X connect 11 6 18 0;
#X connect 11 7 19 0;
#X connect 20 0 27 0;
#X connect 20 1 28 0;
#X connect 21 0 38 0;
#X connect 22 0 21 1;
#X connect 23 0 21 1;
#X connect 24 0 10 0;
#X connect 25 0 24 1;
#X connect 26 0 24 1;
#X connect 27 0 23 0;
#X connect 27 1 38 0;
#X connect 27 2 25 0;
#X connect 28 0 21 0;
#X connect 28 1 26 0;
#X connect 29 0 1 0;
#X connect 29 1 22 0;
#X connect 30 0 31 0;
#X connect 31 0 20 0;
#X connect 32 0 31 0;
#X connect 33 0 32 0;
#X connect 34 0 35 0;
#X connect 35 0 36 0;
#X connect 36 0 38 1;
#X connect 37 0 36 0;
#X connect 38 0 24 0;
#X connect 40 0 9 0;
